<svg version="1.1" viewBox="0 0 96 96" xmlns="http://www.w3.org/2000/svg" id="Icons_Wreath" overflow="hidden"><style/><path d="M39 66.3s-5.3-6.1-13.3-8.2c-8-2.1-15.7.5-15.7.5s5.3 6.1 13.3 8.2c8 2.1 15.7-.5 15.7-.5zm-8.8-9.1s-1.6-7.9-7.4-13.8C16.9 37.6 9 36 9 36s1.6 7.9 7.4 13.8c5.9 5.8 13.8 7.4 13.8 7.4zm-2.8-12s2.6-7.7.5-15.7c-2.1-8-8.2-13.3-8.2-13.3s-2.6 7.7-.5 15.7c2.1 8 8.2 13.3 8.2 13.3zm12.5-21c2.1-8-.5-15.7-.5-15.7s-6.1 5.3-8.2 13.3c-2.1 8 .5 15.7.5 15.7s6-5.3 8.2-13.3zm30.4 33.9c-8 2.1-13.3 8.2-13.3 8.2s7.7 2.6 15.7.5c8-2.1 13.3-8.2 13.3-8.2s-7.7-2.7-15.7-.5zM87 36s-7.9 1.6-13.8 7.4c-5.9 5.9-7.4 13.8-7.4 13.8s7.9-1.6 13.8-7.4C85.4 43.9 87 36 87 36zm-10.1-4.1c2.1-8-.5-15.7-.5-15.7s-6.1 5.3-8.2 13.3c-2.1 8 .5 15.7.5 15.7s6-5.3 8.2-13.3zm-12.5 5.6s2.6-7.7.5-15.7c-2.1-8-8.2-13.3-8.2-13.3s-2.6 7.7-.5 15.7c2.1 8 8.2 13.3 8.2 13.3zm-2.2 32.1c-5.9-1.6-11.6-.6-14.2 0-2.6-.6-8.3-1.6-14.2-.1-8 2.1-13.3 8.2-13.3 8.2s7.7 2.6 15.7.5c1.3-.4 2.6-.8 3.8-1.4-1.5 2.1-3 3.8-6.1 5.1l2.3 5.5c5.4-2.3 7.7-5.7 9.8-8.7.7-1 1.3-1.9 2.1-2.8.7.9 1.4 1.8 2.1 2.8 2 3 4.3 6.4 9.8 8.7l2.3-5.5c-3.1-1.3-4.6-3-6.1-5.1 1.2.5 2.4 1 3.8 1.4 8 2.1 15.7-.5 15.7-.5s-5.5-6-13.5-8.1z" stroke-dashoffset="1" fill="#FFF"/></svg>