<svg xmlns="http://www.w3.org/2000/svg" viewBox="0 0 792 612"><path d="M90.3 364.1c-4.5-4.3-12.2-9.8-20.3-20-6.3-8-11.1-17-13.8-26.7-2.6-9.6-3-19.8-1.5-29.9 1.4-10.1 4.8-20.1 9.2-29.6 2.2-4.8 4.7-9.5 7.4-14.1 1.4-2.3 2.8-4.6 4.3-6.8l2.2-3.3 2.4-3.4.3-.5c.8-1.3 2-2.9 3.2-4.3 1.2-1.5 2.4-2.9 3.7-4.4 2.7-2.9 5.4-5.7 8.3-8.4 5.8-5.4 12-12.6 18.5-17.3 24.1-17.3 51.8-29.8 80.4-39.2 28.6-9.3 58.5-17.6 88.5-21.4 13.9-1.8 24.7-3.5 35.1-5.7 10.3-2.2 20-.4 31.9-3.5-12-2.3-22.1-3.8-32.8-4.5-10.6-.6-22-.3-36.2 1.4-30.9 4-61.7 10.2-91.6 20-29.8 9.8-58.9 22.9-84.8 41.5-7 5-13.8 10.5-20.2 16.5-3.2 3-6.3 6.1-9.2 9.4-1.5 1.6-3 3.3-4.4 5.1-1.4 1.8-2.7 3.5-4.2 5.8-13.1 18.6-24.7 40.1-28.3 64.3-1.8 12-1.3 24.6 2 36.6 3.2 12 9.2 23.1 16.7 32.7 9.7 12 18.7 18.7 25.1 22 6.5 3.3 10.6 3 12.7-.9 1.6-4.1-.1-7.1-4.6-11.4" fill="#ed1c24"/><path d="M93.2 322.1c-3.5-7.9-6.1-18.1-4.5-30.2 1.6-13.1 7.4-25.9 15.3-37.5 2-2.9 4.1-5.8 6.3-8.5 1.1-1.4 2.3-2.8 3.4-4.2l1.8-2 .9-1 .7-.8c4.7-4.9 10.3-9.6 16-14 22.9-17.6 49.1-30.9 76.5-40.7 55-19.5 115-24.1 173.3-18.4 29.3 3 58.4 8.3 86.9 15.7 28.5 7.5 56.3 17.1 83 29.3 26.7 12.2 52.1 27 75.4 44.6 23.2 17.6 44.4 38.1 62.1 61.2 1.6 2.1 3.2 4.1 4.7 6.2h20c-3.4-5.3-7.4-10.7-11.6-16.3-18.8-24.2-40.9-45.8-65.3-64.2-24.4-18.4-50.9-33.8-78.6-46.5-27.6-12.7-56.4-22.6-85.8-30.3-29.3-7.6-59.2-13.1-89.4-16.1-7.5-.8-15.1-1.4-22.8-1.8-3.8-.2-7.7-.3-11.3-.4-3.8-.1-7.6-.2-11.4-.2-15.2 0-30.4.6-45.5 2.1-30.4 3-60.5 9.3-89.4 19.5-28.9 10.4-56.6 24.4-81.1 43.3-6.1 4.8-12.1 9.7-17.8 15.5l-1.2 1.3-.9 1.2-2 2.2c-1.3 1.5-2.4 3-3.7 4.5-2.4 3.1-4.8 6.2-7 9.5-8.8 13.1-16 28.1-18.2 44.8-.9 7.6-.6 15 .6 21.6 1.2 6.6 3.3 12.5 5.7 17.6 4.9 10.2 10.8 17.2 16 22 2.8 2.6 5.4 4.5 7.7 5.9v-20c-2.8-3.9-6.1-8.8-8.8-14.9m661.5 106.5c-3.5-22.9-8.5-42-16.1-61.4-3.1-7.7-6.7-15.5-10.8-23.5l-4.9 20.5c1.6 2.7 3.2 5.5 4.7 8.2 9.8 17.6 18.5 34.7 27.1 56.2" fill="#f7941d"/><path d="M683.9 425.5c.9 2.4 1.3 2.4 2.1 4.9 1.4.9 9.6-.7 12.4 5.7-.7-8.5-1.1-5.5-2.8-13.9-.6-2.8-1.3-5.6-2-8.4h-14.3c1.6 3.9 3.2 7.8 4.6 11.7M559.3 246.1c-23.2-14.3-47.9-26.2-73.3-35.9s-51.6-17.4-78.4-22.6c-26.8-4.9-53.9-7.8-81.2-7.9-27.3-.1-54.6 2.4-81.5 8.3-26.8 5.9-52.9 15-77.2 28.3-6.1 3.4-12 6.9-17.9 11.4l-1.2.9-1 .8-2 1.7c-1.3 1.1-2.7 2.3-4 3.4-2.6 2.3-5.2 4.7-7.7 7.2-9.9 10-19 21.5-24.7 35.3-5.2 12.8-6.3 25.5-4.5 35.7.5 3.4 1.3 6.4 2.3 9.2h16.8c-1.3-3.4-2.3-7.3-3-11.8-1.1-7.5-.5-16.7 3.7-26.8 4.5-10.9 12.2-21 21.1-29.9 2.2-2.2 4.5-4.4 7-6.5 1.2-1.1 2.3-2.1 3.6-3.2l1.9-1.5 1.7-1.4c4.8-3.6 10.3-7 15.9-10.1 22.5-12.4 47.4-21.1 72.9-26.7 25.4-5.6 51.6-8.1 77.8-7.9 26.2.1 52.4 2.9 78.3 7.6 25.6 4.9 51 12.4 75.5 21.8s48.3 20.8 70.5 34.5c22.3 13.7 43.1 29.7 61.5 48.2 4.3 4.3 8.5 8.9 12.6 13.5h4.5l1.3 6.7c2.4 2.9 4.8 5.9 7 8.9l4-15.6h4.9c-7-8.8-14.6-17.3-22.5-25.2-19.5-19.3-41.5-36.1-64.7-50.4" fill="#00a651"/><path d="M526.4 269.6c-18.9-12.2-38.7-22.8-59.6-31.4-2.6-1.1-5.2-2.1-8-3.1-2.9-1-5.2-1.9-8-2.7-5.3-1.8-10.6-3.5-16-5-10.7-3.1-21.6-5.8-32.6-8.1-43.9-9-89.4-10.7-133.9-4-22.2 3.4-44.1 8.7-65.4 16.8-2.7 1.1-5.3 2.2-8 3.3l-2 .9-2.1 1-3.8 2c-5.1 2.7-10 5.7-14.9 9-9.5 6.6-18.7 14.4-25.9 24.4-6.7 9.2-10.5 18.8-11.8 27.3-1.3 8.5-.5 15.6.9 20.9l.3.9H150c-.1-1.2-.2-2.4-.2-3.9-.2-4.1-.5-9.2.7-15.2s3.8-13 9.1-20.3c5.7-7.9 13.4-14.6 21.9-20.4 4.2-2.9 8.7-5.6 13.3-8.1l3.5-1.9 1.6-.8 1.7-.8c2.3-1 4.8-2 7.3-3 19.7-7.6 40.7-12.7 61.9-15.9 42.4-6.4 86-4.8 128.1 3.8 10.6 2.2 21 4.7 31.3 7.7 5.2 1.5 10.3 3.1 15.4 4.8 2.5.9 5.3 1.8 7.6 2.6 2.4.9 4.9 1.9 7.4 2.9 19.7 8.1 38.8 18.3 56.8 29.9 17.1 11.1 33.3 23.8 48 38 10 1.6 18.2 5.3 24.6 11l-.6-2.7-1.9-7.8h1.6c-3.2-3.5-6.5-6.9-9.9-10.2-16.2-15.7-34-29.7-52.8-41.9m118.7 159.9c-.8-5.3-1.8-10.5-3.1-15.8h-13.2c.5 1.1 1.1 2.2 1.6 3.3 1.9 4.1 3.6 8.1 5.4 12.2 1.1-.2 2.3-.3 3.4-.3 2.1 0 4.3.3 5.9.6" fill="#1b75bc"/><path d="M481.7 284.4c-3.6-2.2-7.1-4.3-10.8-6.3-1.9-1-3.8-2-5.6-3l-3-1.4-2.7-1.3c-30.1-14.3-62.5-23.7-95.4-27.9-33-4.3-66.5-3.7-99.3 1.6-8.2 1.3-16.4 3-24.5 5-4.1 1-8.1 2.2-12.2 3.5l-1.6.5-.5.1c-.2.1-.5.2-.7.3l-.8.3-2.9 1.2c-2 .9-3.8 1.7-5.8 2.6-7.7 3.6-15.2 7.6-22.4 12.5-7.1 4.9-14.1 10.5-19.9 17.7-5.4 6.6-8.9 13.7-10.5 20.1-1.1 4.5-1.3 8.7-.9 12.2 6.1.3 11.1 1.3 15.3 2.8v-.8c.2-2.7.3-6.1 1.5-10.2 1.2-4 3.4-8.8 7.5-13.8 4.4-5.4 10.1-10.2 16.4-14.4 6.3-4.2 13-7.9 20-11.2 1.8-.8 3.6-1.6 5.3-2.4l2.7-1.2.5-.3.3-.1 1.3-.4c3.6-1.2 7.4-2.2 11.2-3.1 7.6-1.9 15.3-3.5 23.2-4.7 31.1-5.1 63.2-5.7 94.5-1.6 31.3 4.1 62 13 90.5 26.5l2.7 1.3 2.5 1.3c1.7.9 3.4 1.8 5.2 2.7 3.4 1.9 6.7 3.9 10.1 6 6.7 4.2 13.2 8.6 19.6 13.3 8.6 6.4 17 13.3 24.9 20.5 4.2-3.7 9.2-6.6 15.1-8.6-9.5-9-19.6-17.4-30.1-25.2-6.7-5-13.6-9.7-20.7-14.1m77.6 89.3c.2-1.7.2-3.6.2-6-.2-15.5-4.5-15.5-6.1-15.5-3.5 0-5 4.7-5.5 10.1l6.4 6.5c1.7 1.7 3.4 3.3 5 4.9" fill="#662d91"/><path d="M137.6 362.8v-16.9h8.4c6.1 0 11.9 1 11.9 8.2 0 8-6.1 8.7-12.4 8.7h-7.9m16.7 21.7c2.5 4.7 2.8 17.1 4.2 22.8h27.1l2.5-7.3c-1.3-6.9-2.1-15-5.5-21.1-2.8-4.2-6.8-7.3-13.4-8.5v-.2c11.3-2.7 18.9-8.8 18.9-20.9 0-15.2-11.7-21.1-30.6-21.1h-49.1v79.1h30.4v-26.9h6.8c3.9.1 6.9.5 8.7 4.1m86.1-39.3h.2l8.6 25.9h-17.5l8.7-25.9m-17.8 62.1l4.9-17.1h25.6l5.2 17.1h29.3v-7.2L262 328.2h-42l-27.7 79.1h30.3m71.3-79.1h30.4v79.1h-30.4zM393 384h-.2l-14.7-55.8h-45.4v79.1h26.1V350h.2l15.4 57.3h44.7v-79.1H393V384m71.1 7h-8v-16.2h8.1c5.7 0 11.3 1.3 11.3 8.1.1 6.1-6 8.1-11.4 8.1m-8-47.8h8.3c5.4 0 10.4 1.8 10.4 7.7 0 6-5.8 7.6-11.1 7.6h-7.6v-15.3zM504 378c-2.7-5.3-8.3-9.7-15.9-10.7v-.2c10.5-2.7 16.3-8.5 16.3-19.4 0-15.1-13.5-19.5-27.2-19.5h-49.8v79.1h45.9c16.3 0 32.2-2 32.5-21.7-.7-2.4-1.3-4.9-1.8-7.6m49.4 11.6c-10.8 0-12.1-13.4-12.1-21.9 0-7.3.9-21.9 12.1-21.9 11.6 0 12.4 14.5 12.5 21.9-.1 8.6-.4 21.9-12.5 21.9m40-42.1c-6.6-13.5-20.5-20.6-40-20.6-27.6 0-43.8 14.4-43.8 40.9 0 27 16.2 40.9 43.8 40.9 27.7 0 44.2-13.9 44.2-40.9 0-.9-.1-1.7-.1-2.5l-4.1-17.8m112.5 59.8l19-79.1h-27.1l-9.7 50.5h-.2l-12.4-50.5h-29.1l-12.7 50.5h-.2l-9.6-50.5h-28.4l18.4 79.1h33.3l12.6-51.7h.2l13.2 51.7h32.7"/><path d="M447.9 478.5V489c-5.3 2-10.5 3-15.6 3-8.4 0-15-2.5-20-7.4-4.9-5-7.4-11.6-7.4-19.9 0-8.4 2.4-15.2 7.3-20.3 4.8-5.2 11.2-7.7 19.1-7.7 2.7 0 5.2.3 7.4.8s4.9 1.5 8.1 2.9v11.3c-5.3-3.4-10.3-5.1-14.9-5.1-4.8 0-8.7 1.7-11.7 5-3.1 3.3-4.6 7.6-4.6 12.8 0 5.4 1.7 9.8 5 13 3.3 3.2 7.7 4.8 13.4 4.8 4-.1 8.6-1.3 13.9-3.7m20.2-19.6H495c-.3-4.2-1.6-7.5-3.8-9.8-2.2-2.3-5.2-3.4-9-3.4s-7 1.2-9.4 3.4c-2.3 2.3-4 5.6-4.7 9.8m37.4 6.3h-37.6c.2 5.1 2 9.2 5.2 12.2 3.1 3 7.2 4.5 12.2 4.5 7 0 13.4-2.2 19.3-6.5v10.3c-3.2 2.2-6.4 3.7-9.6 4.6-3.2.9-7 1.4-11.3 1.4-5.9 0-10.6-1.2-14.2-3.7-3.7-2.4-6.6-5.7-8.8-9.8-2.2-4.1-3.3-8.9-3.3-14.3 0-8.1 2.3-14.7 6.9-19.8 4.6-5.1 10.6-7.6 18-7.6 7 0 12.7 2.4 16.9 7.4 4.2 5 6.3 11.6 6.3 19.9v1.4m21.9-27.6v6.8c4.8-5.2 10.1-7.8 16.1-7.8 3.4 0 6.4.9 9.3 2.6 2.8 1.7 5 4.1 6.5 7.1s2.3 7.8 2.3 14.3V491H551v-30.4c0-5.5-.9-9.4-2.5-11.7-1.6-2.3-4.5-3.5-8.4-3.5-5 0-9.2 2.5-12.8 7.5V491h-10.8v-53.4h10.9m41.5 8.4l19.8-19.5v11h16.9v9.5h-16.9v26.1c0 6.1 2.6 9.2 7.7 9.2 3.8 0 7.7-1.3 12-3.7v9.9c-4.1 2.3-8.5 3.4-13.3 3.4-4.9 0-8.8-1.4-12.1-4.2-1-.9-1.9-1.8-2.5-2.9-.6-1-1.2-2.4-1.6-4.2-.5-1.7-.7-5-.7-9.9V447H569v-1m58.3-8.4v12.2l.6-.9c5.1-8.2 10.2-12.4 15.3-12.4 4 0 8.1 2 12.4 6l-5.6 9.3c-3.7-3.5-7.1-5.2-10.3-5.2-3.4 0-6.3 1.6-8.8 4.9-2.5 3.2-3.8 7.1-3.8 11.5v28h-10.6v-53.4h10.8m41.6 21.3h26.8c-.2-4.2-1.5-7.5-3.8-9.8-2.3-2.3-5.2-3.4-9.1-3.4-3.8 0-6.9 1.2-9.3 3.4-2.3 2.3-3.9 5.6-4.6 9.8m37.4 6.3h-37.6c.2 5.1 2 9.2 5.1 12.2 3.2 3 7.3 4.5 12.3 4.5 7 0 13.4-2.2 19.3-6.5v10.3c-3.3 2.2-6.5 3.7-9.7 4.6-3.1.9-6.9 1.4-11.2 1.4-5.9 0-10.6-1.2-14.3-3.7-3.6-2.4-6.6-5.7-8.7-9.8-2.2-4.1-3.3-8.9-3.3-14.3 0-8.1 2.3-14.7 6.9-19.8 4.6-5.1 10.6-7.6 17.9-7.6 7.1 0 12.8 2.4 17 7.4 4.2 5 6.3 11.6 6.3 19.9v1.4" fill="#fff"/></svg>