<svg version="1.1" viewBox="0 0 96 96" xmlns="http://www.w3.org/2000/svg" id="Icons_Taxi" overflow="hidden"><style/><path d="M76 52c0 1.1-.9 2-2 2h-6c-1.1 0-2-.9-2-2v-2c0-1.1.9-2 2-2h6c1.1 0 2 .9 2 2v2zM24.3 42l5.8-13.8c.3-.7 1-1.2 1.8-1.2h32c.8 0 1.5.5 1.8 1.2l6 13.8H24.3zM30 52c0 1.1-.9 2-2 2h-6c-1.1 0-2-.9-2-2v-2c0-1.1.9-2 2-2h6c1.1 0 2 .9 2 2v2zm46-10l-6.5-15.3c-.9-2.3-3.1-3.7-5.5-3.7h-8v-2c0-2.2-1.8-4-4-4h-8c-2.2 0-4 1.8-4 4v2h-8c-2.4 0-4.6 1.4-5.5 3.7L20 42c-3.3 0-6 2.7-6 6v16c0 2.2 1.8 4 4 4h2v7c0 2.2 1.8 4 4 4h2c2.2 0 4-1.8 4-4v-7h36v7c0 2.2 1.8 4 4 4h2c2.2 0 4-1.8 4-4v-7h2c2.2 0 4-1.8 4-4V48c0-3.3-2.7-6-6-6z" stroke-dashoffset="1" fill="#FFF"/></svg>