<svg xmlns="http://www.w3.org/2000/svg" width="97.75" height="97.75"><g fill="#fff"><path d="M67.211 46.07c-3.291 0-5.971 2.648-5.982 5.917-.012 3.252 2.681 5.959 5.939 5.967 3.266.01 5.949-2.674 5.947-5.943-.002-3.279-2.65-5.941-5.904-5.941zm0 8.95c-1.686 0-3.043-1.332-3.039-2.983.002-1.716 1.318-3.039 3.02-3.041 1.666-.002 3.031 1.362 3.017 3.021-.02 1.655-1.361 3.003-2.998 3.003zM30.512 37.514c-7.9-.07-14.787 6.523-14.65 14.921.129 7.832 6.584 14.472 14.814 14.4 8.047-.068 14.516-6.641 14.531-14.6a14.646 14.646 0 0 0-14.695-14.721zm.236 23.586c-5.293.242-9.564-3.977-9.555-9.1.01-5.191 4.287-9.162 9.125-9.074 5.023-.006 9.1 4.049 9.086 9.07a9.098 9.098 0 0 1-8.656 9.104z"/><path d="M48.875 0C21.883 0 0 21.883 0 48.875S21.883 97.75 48.875 97.75 97.75 75.867 97.75 48.875 75.867 0 48.875 0zm28.096 67.852c-2.984 1.896-6.283 2.795-9.807 2.814-1.48.01-2.955-.189-4.4-.564-3.522-.914-6.545-2.672-9.035-5.33-.33-.35-.639-.713-.987-1.108l-3.939 5.871-3.873-5.787c-.088.045-.113.051-.131.065a.637.637 0 0 0-.076.082c-3.012 3.556-6.801 5.734-11.414 6.465a17.825 17.825 0 0 1-7.604-.428c-3.533-.971-6.537-2.834-8.963-5.586-2.371-2.688-3.846-5.812-4.398-9.363-.633-3.312.137-6.508.33-7.282.559-2.252 1.531-4.322 2.867-6.225a.718.718 0 0 0 .082-.535c-.545-1.998-1.482-3.816-2.582-5.557-.279-.441-.613-.85-.922-1.275v-.148c.061.008.123.02.184.02 3.697.002 7.396.002 11.094-.004.162 0 .34-.066.479-.154 2.598-1.668 5.367-2.988 8.275-4.016a45.082 45.082 0 0 1 6.424-1.742 51.473 51.473 0 0 1 6.389-.838c5.238-.404 9.426.15 12.211.539 2.053.289 4.064.807 6.051 1.416a41.419 41.419 0 0 1 9.818 4.477c.213.133.5.217.752.217 3.613.016 7.227.01 10.84.014.291 0 .582.031.871.047 0 .07.01.1-.002.117-.168.258-.34.516-.508.775-1.225 1.879-2.273 3.848-2.893 6.021-.066.232-.082.428.076.658 3.219 4.621 4.243 9.693 2.899 15.162-1.181 4.795-3.929 8.533-8.108 11.182z"/><path d="M30.236 46.07c-3.209.006-5.898 2.715-5.891 5.936.008 3.26 2.695 5.941 5.963 5.949 3.248.008 5.939-2.697 5.932-5.965-.01-3.299-2.676-5.926-6.004-5.92zm.075 8.981c-1.723.002-3.051-1.328-3.051-3.061 0-1.701 1.326-3.021 3.043-3.023a3.043 3.043 0 0 1 3.057 3.035c.005 1.672-1.366 3.043-3.049 3.049zM66.902 37.57c-8.019.164-14.295 6.627-14.367 14.622 0 8.121 6.59 14.756 14.682 14.725 8.123-.029 14.682-6.477 14.676-14.688-.004-8.463-6.87-14.825-14.991-14.659zm.66 23.532a9.104 9.104 0 0 1-9.487-9.094c.002-5.154 4.252-9.17 9.112-9.082 5.027-.01 9.099 4.039 9.099 9.061-.001 5.04-4.003 8.935-8.724 9.115z"/><path d="M54.732 38.639c3.248-2.98 7.117-4.543 11.506-4.875-5.209-2.314-10.701-3.299-16.355-3.408-6.424-.125-12.674.822-18.643 3.326 4.463.271 8.383 1.828 11.695 4.838 3.305 3.008 5.242 6.756 5.945 11.166.724-4.358 2.608-8.073 5.852-11.047z"/></g></svg>