<svg xmlns="http://www.w3.org/2000/svg" version="1.1" id="Capa_1" x="0" y="0" viewBox="0 0 54 54" xml:space="preserve" width="512" height="512"><script id="tinyhippos-injected"/><path d="M53 27c0 14.359-11.641 26-26 26S1 41.359 1 27 12.641 1 27 1s26 11.641 26 26z" data-original="#4FBA6F" class="active-path" data-old_color="#5B5E5E" fill="#5a5d5d"/><path d="M27 54C12.112 54 0 41.888 0 27S12.112 0 27 0s27 12.112 27 27-12.112 27-27 27zm0-52C13.215 2 2 13.215 2 27s11.215 25 25 25 25-11.215 25-25S40.785 2 27 2z" data-original="#4FBA6F" class="active-path" data-old_color="#5B5E5E" fill="#5a5d5d"/><path d="M39 32.706a.997.997 0 0 1-.707-.293L27 21.12 15.707 32.413a.999.999 0 1 1-1.414-1.414l11.498-11.498a1.713 1.713 0 0 1 2.418 0l11.498 11.498A.999.999 0 0 1 39 32.706z" data-original="#FFFFFF" fill="#fff"/></svg>